<svg width="86" height="86" viewBox="0 0 86 86" fill="none" xmlns="http://www.w3.org/2000/svg">
<path d="M42.0679 57.2501V68.2501C42.0679 68.2501 66.879 46.5398 73.0679 34.2498C79.5515 21.3748 75.0563 10.7499 64.5679 10.7499C52.5679 10.7499 44.5679 18.2499 44.5679 18.2499C44.5679 18.2499 49.9978 3.24985 66.0679 3.24985C84.1186 3.24985 90.8564 19.2202 81.0679 36.7498C70.7921 55.1522 34.0679 82.7501 34.0679 82.7501L39.7161 64.7465L42.0679 57.2501Z" fill="url(#paint0_linear_1_73)"/>
<path d="M42.0679 57.2501V68.2501C42.0679 68.2501 66.879 46.5398 73.0679 34.2498C79.5515 21.3748 75.0563 10.7499 64.5679 10.7499C52.5679 10.7499 44.5679 18.2499 44.5679 18.2499C44.5679 18.2499 49.9978 3.24985 66.0679 3.24985C84.1186 3.24985 90.8564 19.2202 81.0679 36.7498C70.7921 55.1522 34.0679 82.7501 34.0679 82.7501L39.7161 64.7465L42.0679 57.2501Z" fill="url(#paint1_radial_1_73)"/>
<path d="M42.0679 57.2501V68.2501C42.0679 68.2501 66.879 46.5398 73.0679 34.2498C79.5515 21.3748 75.0563 10.7499 64.5679 10.7499C52.5679 10.7499 44.5679 18.2499 44.5679 18.2499C44.5679 18.2499 49.9978 3.24985 66.0679 3.24985C84.1186 3.24985 90.8564 19.2202 81.0679 36.7498C70.7921 55.1522 34.0679 82.7501 34.0679 82.7501L39.7161 64.7465L42.0679 57.2501Z" fill="url(#paint2_linear_1_73)"/>
<path d="M44.5679 18.2499C44.5679 18.2499 39.1473 3.24985 23.0772 3.24985C5.02649 3.24985 -1.71131 19.2202 8.07718 36.7498C18.353 55.1522 39.7161 64.7465 39.7161 64.7465C39.7161 64.7465 21.6165 45.2498 16.0772 34.2498C9.5936 21.3748 14.0888 10.7499 24.5772 10.7499C36.5772 10.7499 44.5679 18.2499 44.5679 18.2499Z" fill="url(#paint3_linear_1_73)"/>
<path d="M44.5679 18.2499C44.5679 18.2499 39.1473 3.24985 23.0772 3.24985C5.02649 3.24985 -1.71131 19.2202 8.07718 36.7498C18.353 55.1522 39.7161 64.7465 39.7161 64.7465C39.7161 64.7465 21.6165 45.2498 16.0772 34.2498C9.5936 21.3748 14.0888 10.7499 24.5772 10.7499C36.5772 10.7499 44.5679 18.2499 44.5679 18.2499Z" fill="url(#paint4_radial_1_73)"/>
<path d="M44.5679 18.2499C44.5679 18.2499 39.1473 3.24985 23.0772 3.24985C5.02649 3.24985 -1.71131 19.2202 8.07718 36.7498C18.353 55.1522 39.7161 64.7465 39.7161 64.7465C39.7161 64.7465 21.6165 45.2498 16.0772 34.2498C9.5936 21.3748 14.0888 10.7499 24.5772 10.7499C36.5772 10.7499 44.5679 18.2499 44.5679 18.2499Z" fill="url(#paint5_linear_1_73)" fill-opacity="0.5"/>
<path d="M28.9967 44.3969L30.7203 34.622C30.8323 33.9869 31.4459 33.472 32.0908 33.472C32.7358 33.472 33.1678 33.9869 33.0558 34.622L31.3322 44.3969C30.0443 51.7009 35.0126 57.6219 42.4292 57.6219C49.8458 57.6219 56.9022 51.7009 58.1901 44.3969L59.9137 34.622C60.0256 33.9869 60.6392 33.472 61.2842 33.472C61.9291 33.472 62.3611 33.9869 62.2491 34.622L60.5255 44.3969C59.0137 52.9711 50.7301 59.9219 42.0237 59.9219C33.3172 59.9219 27.4849 52.9711 28.9967 44.3969Z" fill="url(#paint6_linear_1_73)"/>
<path d="M28.9967 44.3969L30.7203 34.622C30.8323 33.9869 31.4459 33.472 32.0908 33.472C32.7358 33.472 33.1678 33.9869 33.0558 34.622L31.3322 44.3969C30.0443 51.7009 35.0126 57.6219 42.4292 57.6219C49.8458 57.6219 56.9022 51.7009 58.1901 44.3969L59.9137 34.622C60.0256 33.9869 60.6392 33.472 61.2842 33.472C61.9291 33.472 62.3611 33.9869 62.2491 34.622L60.5255 44.3969C59.0137 52.9711 50.7301 59.9219 42.0237 59.9219C33.3172 59.9219 27.4849 52.9711 28.9967 44.3969Z" fill="#FF7A3C"/>
<path d="M49.5263 17.3721C56.1023 17.3721 60.569 22.4703 59.745 28.872H56.2566C55.6117 28.872 54.9981 29.3869 54.8861 30.022C54.7741 30.6571 55.2061 31.172 55.851 31.172H59.3542L58.9487 33.472H55.4455C54.8006 33.472 54.187 33.9869 54.075 34.622C53.963 35.2571 54.395 35.772 55.0399 35.772H58.5431L58.1376 38.072H54.6344C53.9895 38.072 53.3759 38.5868 53.2639 39.222C53.1519 39.8571 53.5839 40.372 54.2288 40.372H57.732L57.3265 42.6719H53.8233C53.1784 42.6719 52.5648 43.1868 52.4528 43.8219C52.3408 44.4571 52.7728 44.9719 53.4177 44.9719H56.7944C54.9125 50.8234 49.0116 55.3219 42.8348 55.3219C36.6579 55.3219 32.3434 50.8234 32.5251 44.9719H45.2436C45.8885 44.9719 46.5021 44.4571 46.6141 43.8219C46.7261 43.1868 46.2941 42.6719 45.6492 42.6719H32.8041L33.2096 40.372H46.0547C46.6996 40.372 47.3132 39.8571 47.4252 39.222C47.5372 38.5868 47.1052 38.072 46.4603 38.072H33.6152L34.0207 35.772H46.8658C47.5107 35.772 48.1243 35.2571 48.2363 34.622C48.3483 33.9869 47.9163 33.472 47.2714 33.472H34.4263L34.8318 31.172H47.6769C48.3218 31.172 48.9354 30.6571 49.0474 30.022C49.1594 29.3869 48.7274 28.872 48.0825 28.872H35.2522C36.6858 22.4703 42.9504 17.3721 49.5263 17.3721Z" fill="url(#paint7_linear_1_73)"/>
<path d="M49.5263 17.3721C56.1023 17.3721 60.569 22.4703 59.745 28.872H56.2566C55.6117 28.872 54.9981 29.3869 54.8861 30.022C54.7741 30.6571 55.2061 31.172 55.851 31.172H59.3542L58.9487 33.472H55.4455C54.8006 33.472 54.187 33.9869 54.075 34.622C53.963 35.2571 54.395 35.772 55.0399 35.772H58.5431L58.1376 38.072H54.6344C53.9895 38.072 53.3759 38.5868 53.2639 39.222C53.1519 39.8571 53.5839 40.372 54.2288 40.372H57.732L57.3265 42.6719H53.8233C53.1784 42.6719 52.5648 43.1868 52.4528 43.8219C52.3408 44.4571 52.7728 44.9719 53.4177 44.9719H56.7944C54.9125 50.8234 49.0116 55.3219 42.8348 55.3219C36.6579 55.3219 32.3434 50.8234 32.5251 44.9719H45.2436C45.8885 44.9719 46.5021 44.4571 46.6141 43.8219C46.7261 43.1868 46.2941 42.6719 45.6492 42.6719H32.8041L33.2096 40.372H46.0547C46.6996 40.372 47.3132 39.8571 47.4252 39.222C47.5372 38.5868 47.1052 38.072 46.4603 38.072H33.6152L34.0207 35.772H46.8658C47.5107 35.772 48.1243 35.2571 48.2363 34.622C48.3483 33.9869 47.9163 33.472 47.2714 33.472H34.4263L34.8318 31.172H47.6769C48.3218 31.172 48.9354 30.6571 49.0474 30.022C49.1594 29.3869 48.7274 28.872 48.0825 28.872H35.2522C36.6858 22.4703 42.9504 17.3721 49.5263 17.3721Z" fill="#FF7A3C"/>
<path d="M79.7293 49.7231L74.6853 58.9892C74.2743 58.5522 73.7136 58.2083 73.004 58.0372C70.8556 57.5189 68.2597 58.6713 67.2031 60.6124C66.1465 62.5534 67.0307 64.5453 69.1791 65.0636C71.3275 65.5818 73.9234 64.4294 74.98 62.4883L79.7611 53.7053L83.6496 54.6433L85.562 51.1301L79.7293 49.7231Z" fill="#F74427"/>
<path d="M0.437828 44.7476C13.0733 61.6173 30.3998 64.9366 30.3998 64.9366C30.3998 64.9366 11.6253 54.343 4.67008 44.1788L0.437828 44.7476Z" fill="url(#paint8_linear_1_73)"/>
<defs>
<linearGradient id="paint0_linear_1_73" x1="24.0801" y1="3.24985" x2="24.0801" y2="60.7499" gradientUnits="userSpaceOnUse">
<stop stop-color="#FD1C21"/>
<stop offset="1" stop-color="#F10510"/>
</linearGradient>
<radialGradient id="paint1_radial_1_73" cx="0" cy="0" r="1" gradientTransform="matrix(-51.0146 68.5083 -109.066 -32.0442 72.3295 5.31612)" gradientUnits="userSpaceOnUse">
<stop stop-color="#FD752E"/>
<stop offset="0.327072" stop-color="#FE4925"/>
<stop offset="0.657488" stop-color="#D62833"/>
<stop offset="1" stop-color="#FF7A3C"/>
</radialGradient>
<linearGradient id="paint2_linear_1_73" x1="44.5726" y1="3.24985" x2="44.5726" y2="82.7501" gradientUnits="userSpaceOnUse">
<stop stop-color="#FF7A3C" stop-opacity="0"/>
<stop offset="1" stop-color="#FF7A3C"/>
</linearGradient>
<linearGradient id="paint3_linear_1_73" x1="24.0801" y1="3.24985" x2="24.0801" y2="60.7499" gradientUnits="userSpaceOnUse">
<stop stop-color="#FD1C21"/>
<stop offset="1" stop-color="#F10510"/>
</linearGradient>
<radialGradient id="paint4_radial_1_73" cx="0" cy="0" r="1" gradientTransform="matrix(-51.0146 68.5083 -109.066 -32.0442 72.3295 5.31612)" gradientUnits="userSpaceOnUse">
<stop stop-color="#FD752E"/>
<stop offset="0.327072" stop-color="#FE4925"/>
<stop offset="0.657488" stop-color="#D62833"/>
<stop offset="1" stop-color="#FF7A3C"/>
</radialGradient>
<linearGradient id="paint5_linear_1_73" x1="44.5726" y1="3.24985" x2="44.5726" y2="82.7501" gradientUnits="userSpaceOnUse">
<stop stop-color="#FF7A3C" stop-opacity="0"/>
<stop offset="1" stop-color="#FF7A3C"/>
</linearGradient>
<linearGradient id="paint6_linear_1_73" x1="46.6875" y1="33.472" x2="46.6875" y2="59.9219" gradientUnits="userSpaceOnUse">
<stop stop-color="#FB181E"/>
<stop offset="1" stop-color="#731522"/>
</linearGradient>
<linearGradient id="paint7_linear_1_73" x1="49.5263" y1="17.3721" x2="49.5263" y2="55.3219" gradientUnits="userSpaceOnUse">
<stop stop-color="#FB181E"/>
<stop offset="1" stop-color="#731522"/>
</linearGradient>
<linearGradient id="paint8_linear_1_73" x1="12.7288" y1="41.1505" x2="19.495" y2="66.4022" gradientUnits="userSpaceOnUse">
<stop stop-color="#FF7A3C"/>
<stop offset="1" stop-color="#F10510"/>
</linearGradient>
</defs>
</svg>
