<svg width="86" height="86" viewBox="0 0 86 86" fill="none" xmlns="http://www.w3.org/2000/svg">
<path d="M42.0679 57.2501V68.2501C42.0679 68.2501 66.879 46.5398 73.0679 34.2498C79.5514 21.3748 75.0562 10.7499 64.5679 10.7499C52.5679 10.7499 44.5679 18.2499 44.5679 18.2499C44.5679 18.2499 49.9977 3.24985 66.0679 3.24985C84.1186 3.24985 90.8563 19.2202 81.0679 36.7498C70.7921 55.1522 34.0679 82.7501 34.0679 82.7501L39.7161 64.7465L42.0679 57.2501Z" fill="url(#paint0_linear_1_63)"/>
<path d="M42.0679 57.2501V68.2501C42.0679 68.2501 66.879 46.5398 73.0679 34.2498C79.5514 21.3748 75.0562 10.7499 64.5679 10.7499C52.5679 10.7499 44.5679 18.2499 44.5679 18.2499C44.5679 18.2499 49.9977 3.24985 66.0679 3.24985C84.1186 3.24985 90.8563 19.2202 81.0679 36.7498C70.7921 55.1522 34.0679 82.7501 34.0679 82.7501L39.7161 64.7465L42.0679 57.2501Z" fill="url(#paint1_radial_1_63)"/>
<path d="M42.0679 57.2501V68.2501C42.0679 68.2501 66.879 46.5398 73.0679 34.2498C79.5514 21.3748 75.0562 10.7499 64.5679 10.7499C52.5679 10.7499 44.5679 18.2499 44.5679 18.2499C44.5679 18.2499 49.9977 3.24985 66.0679 3.24985C84.1186 3.24985 90.8563 19.2202 81.0679 36.7498C70.7921 55.1522 34.0679 82.7501 34.0679 82.7501L39.7161 64.7465L42.0679 57.2501Z" fill="url(#paint2_linear_1_63)"/>
<path d="M44.5679 18.2499C44.5679 18.2499 39.1473 3.24985 23.0771 3.24985C5.02643 3.24985 -1.71137 19.2202 8.07712 36.7498C18.3529 55.1522 39.7161 64.7465 39.7161 64.7465C39.7161 64.7465 21.6165 45.2498 16.0771 34.2498C9.59353 21.3748 14.0888 10.7499 24.5771 10.7499C36.5771 10.7499 44.5679 18.2499 44.5679 18.2499Z" fill="url(#paint3_linear_1_63)"/>
<path d="M44.5679 18.2499C44.5679 18.2499 39.1473 3.24985 23.0771 3.24985C5.02643 3.24985 -1.71137 19.2202 8.07712 36.7498C18.3529 55.1522 39.7161 64.7465 39.7161 64.7465C39.7161 64.7465 21.6165 45.2498 16.0771 34.2498C9.59353 21.3748 14.0888 10.7499 24.5771 10.7499C36.5771 10.7499 44.5679 18.2499 44.5679 18.2499Z" fill="url(#paint4_radial_1_63)"/>
<path d="M44.5679 18.2499C44.5679 18.2499 39.1473 3.24985 23.0771 3.24985C5.02643 3.24985 -1.71137 19.2202 8.07712 36.7498C18.3529 55.1522 39.7161 64.7465 39.7161 64.7465C39.7161 64.7465 21.6165 45.2498 16.0771 34.2498C9.59353 21.3748 14.0888 10.7499 24.5771 10.7499C36.5771 10.7499 44.5679 18.2499 44.5679 18.2499Z" fill="url(#paint5_linear_1_63)" fill-opacity="0.5"/>
<path d="M30.6996 43.803L32.1756 35.4321C32.2715 34.8882 32.797 34.4473 33.3492 34.4473C33.9015 34.4473 34.2715 34.8882 34.1756 35.4321L32.6996 43.803C31.5967 50.0578 35.8514 55.1283 42.2026 55.1283C48.5539 55.1283 54.5967 50.0578 55.6996 43.803L57.1756 35.4321C57.2715 34.8882 57.797 34.4473 58.3492 34.4473C58.9015 34.4473 59.2715 34.8882 59.1756 35.4321L57.6996 43.803C56.4049 51.1456 49.3112 57.0979 41.8553 57.0979C34.3995 57.0979 29.4049 51.1456 30.6996 43.803Z" fill="url(#paint6_linear_1_63)"/>
<path d="M30.6996 43.803L32.1756 35.4321C32.2715 34.8882 32.797 34.4473 33.3492 34.4473C33.9015 34.4473 34.2715 34.8882 34.1756 35.4321L32.6996 43.803C31.5967 50.0578 35.8514 55.1283 42.2026 55.1283C48.5539 55.1283 54.5967 50.0578 55.6996 43.803L57.1756 35.4321C57.2715 34.8882 57.797 34.4473 58.3492 34.4473C58.9015 34.4473 59.2715 34.8882 59.1756 35.4321L57.6996 43.803C56.4049 51.1456 49.3112 57.0979 41.8553 57.0979C34.3995 57.0979 29.4049 51.1456 30.6996 43.803Z" fill="#2B080C"/>
<path d="M48.2803 20.66C53.9117 20.66 57.7368 25.0259 57.0312 30.5081H54.0439C53.4916 30.5081 52.9661 30.949 52.8702 31.4929C52.7743 32.0368 53.1443 32.4777 53.6966 32.4777H56.6966L56.3493 34.4473H53.3493C52.797 34.4473 52.2715 34.8882 52.1756 35.4321C52.0797 35.976 52.4497 36.4169 53.002 36.4169H56.002L55.6547 38.3865H52.6547C52.1024 38.3865 51.5769 38.8275 51.481 39.3714C51.3851 39.9152 51.7551 40.3562 52.3074 40.3562H55.3074L54.9601 42.3258H51.9601C51.4078 42.3258 50.8823 42.7667 50.7864 43.3106C50.6905 43.8545 51.0605 44.2954 51.6128 44.2954H54.5044C52.8928 49.3064 47.8396 53.1587 42.5499 53.1587C37.2603 53.1587 33.5656 49.3064 33.7212 44.2954H44.6128C45.1651 44.2954 45.6905 43.8545 45.7864 43.3106C45.8823 42.7667 45.5124 42.3258 44.9601 42.3258H33.9601L34.3074 40.3562H45.3074C45.8597 40.3562 46.3851 39.9152 46.481 39.3714C46.5769 38.8275 46.207 38.3865 45.6547 38.3865H34.6547L35.002 36.4169H46.002C46.5542 36.4169 47.0797 35.976 47.1756 35.4321C47.2715 34.8882 46.9015 34.4473 46.3493 34.4473H35.3493L35.6966 32.4777H46.6966C47.2488 32.4777 47.7743 32.0368 47.8702 31.4929C47.9661 30.949 47.5961 30.5081 47.0439 30.5081H36.0565C37.2842 25.0259 42.649 20.66 48.2803 20.66Z" fill="url(#paint7_linear_1_63)"/>
<path d="M48.2803 20.66C53.9117 20.66 57.7368 25.0259 57.0312 30.5081H54.0439C53.4916 30.5081 52.9661 30.949 52.8702 31.4929C52.7743 32.0368 53.1443 32.4777 53.6966 32.4777H56.6966L56.3493 34.4473H53.3493C52.797 34.4473 52.2715 34.8882 52.1756 35.4321C52.0797 35.976 52.4497 36.4169 53.002 36.4169H56.002L55.6547 38.3865H52.6547C52.1024 38.3865 51.5769 38.8275 51.481 39.3714C51.3851 39.9152 51.7551 40.3562 52.3074 40.3562H55.3074L54.9601 42.3258H51.9601C51.4078 42.3258 50.8823 42.7667 50.7864 43.3106C50.6905 43.8545 51.0605 44.2954 51.6128 44.2954H54.5044C52.8928 49.3064 47.8396 53.1587 42.5499 53.1587C37.2603 53.1587 33.5656 49.3064 33.7212 44.2954H44.6128C45.1651 44.2954 45.6905 43.8545 45.7864 43.3106C45.8823 42.7667 45.5124 42.3258 44.9601 42.3258H33.9601L34.3074 40.3562H45.3074C45.8597 40.3562 46.3851 39.9152 46.481 39.3714C46.5769 38.8275 46.207 38.3865 45.6547 38.3865H34.6547L35.002 36.4169H46.002C46.5542 36.4169 47.0797 35.976 47.1756 35.4321C47.2715 34.8882 46.9015 34.4473 46.3493 34.4473H35.3493L35.6966 32.4777H46.6966C47.2488 32.4777 47.7743 32.0368 47.8702 31.4929C47.9661 30.949 47.5961 30.5081 47.0439 30.5081H36.0565C37.2842 25.0259 42.649 20.66 48.2803 20.66Z" fill="#2B080C"/>
<path d="M79.7294 49.7231L74.6853 58.9892C74.2743 58.5522 73.7137 58.2083 73.004 58.0372C70.8557 57.5189 68.2598 58.6713 67.2031 60.6124C66.1465 62.5534 67.0308 64.5453 69.1792 65.0636C71.3276 65.5818 73.9235 64.4294 74.9801 62.4883L79.7612 53.7053L83.6496 54.6433L85.5621 51.1301L79.7294 49.7231Z" fill="#F74427"/>
<path d="M0.437828 44.7476C13.0733 61.6173 30.3998 64.9366 30.3998 64.9366C30.3998 64.9366 11.6253 54.343 4.67008 44.1788L0.437828 44.7476Z" fill="url(#paint8_linear_1_63)"/>
<defs>
<linearGradient id="paint0_linear_1_63" x1="24.08" y1="3.24985" x2="24.08" y2="60.7499" gradientUnits="userSpaceOnUse">
<stop stop-color="#FD1C21"/>
<stop offset="1" stop-color="#F10510"/>
</linearGradient>
<radialGradient id="paint1_radial_1_63" cx="0" cy="0" r="1" gradientTransform="matrix(-51.0146 68.5083 -109.066 -32.0442 72.3295 5.31612)" gradientUnits="userSpaceOnUse">
<stop stop-color="#FD752E"/>
<stop offset="0.327072" stop-color="#FE4925"/>
<stop offset="0.657488" stop-color="#D62833"/>
<stop offset="1" stop-color="#3B0B19"/>
</radialGradient>
<linearGradient id="paint2_linear_1_63" x1="44.5725" y1="3.24985" x2="44.5725" y2="82.7501" gradientUnits="userSpaceOnUse">
<stop stop-opacity="0"/>
<stop offset="1"/>
</linearGradient>
<linearGradient id="paint3_linear_1_63" x1="24.08" y1="3.24985" x2="24.08" y2="60.7499" gradientUnits="userSpaceOnUse">
<stop stop-color="#FD1C21"/>
<stop offset="1" stop-color="#F10510"/>
</linearGradient>
<radialGradient id="paint4_radial_1_63" cx="0" cy="0" r="1" gradientTransform="matrix(-51.0146 68.5083 -109.066 -32.0442 72.3295 5.31612)" gradientUnits="userSpaceOnUse">
<stop stop-color="#FD752E"/>
<stop offset="0.327072" stop-color="#FE4925"/>
<stop offset="0.657488" stop-color="#D62833"/>
<stop offset="1" stop-color="#3B0B19"/>
</radialGradient>
<linearGradient id="paint5_linear_1_63" x1="44.5725" y1="3.24985" x2="44.5725" y2="82.7501" gradientUnits="userSpaceOnUse">
<stop stop-opacity="0"/>
<stop offset="1"/>
</linearGradient>
<linearGradient id="paint6_linear_1_63" x1="45.8492" y1="34.4473" x2="45.8492" y2="57.0979" gradientUnits="userSpaceOnUse">
<stop stop-color="#FB181E"/>
<stop offset="1" stop-color="#731522"/>
</linearGradient>
<linearGradient id="paint7_linear_1_63" x1="48.2803" y1="20.66" x2="48.2803" y2="53.1587" gradientUnits="userSpaceOnUse">
<stop stop-color="#FB181E"/>
<stop offset="1" stop-color="#731522"/>
</linearGradient>
<linearGradient id="paint8_linear_1_63" x1="11.8359" y1="9.41456" x2="19.495" y2="66.4022" gradientUnits="userSpaceOnUse">
<stop stop-color="#FD1C21"/>
<stop offset="1" stop-color="#F10510"/>
</linearGradient>
</defs>
</svg>
